:SAMPLES-PER-SECOND 24
:FULLY-SPECIFIED
:DEGREES
647
root  1.77963 38.7598 26.3308 179.693 -64.3809 174.025
RightUpLeg  -9.54423 -17.1756 -25.0469
RightLeg  11.0871 2.26343 0.825294
RightFoot  24.8112 -2.61558 8.57379
RightToes  -1.74623e-010 0 -2.59999e-017
Spine  3.8212 0.332853 -2.52958
Spine1  16.0895 -1.1244 3.4493
HEad  -18.3587 -40.6934 17.1007
LeftShoulder1  1.78323 -3.09421 -20.6078
LeftArm  43.0381 -24.7372 -67.9358
LeftForeArm  141.458 -72.3083 -145.425
LeftHand  -0.275868 3.97526 22.1874
RightShoulder  3.62917 6.03556 32.1608
RightArm  -24.8008 -16.497 33.0389
RightForeArm  7.91136 9.08101 10.1988
RightHand  -0.124653 -1.98577 -4.05937
LeftUpLeg  -0.203769 7.49958 13.4772
LeftLeg  23.8965 -7.96485 -3.50908
LeftFoot  -6.85658 0.756775 -17.8237
LeftToes  -6.27559e-011 -2.10356e-011 8.24929e-012
648
root  2.08423 39.6744 25.74 -178.725 -65.9868 172.88
RightUpLeg  -9.36297 -15.6325 -23.7054
RightLeg  18.5317 3.90578 1.25507
RightFoot  19.3245 -1.82739 7.15085
RightToes  -1.74623e-010 0 -2.59999e-017
Spine  3.80666 -0.242604 -3.45573
Spine1  14.003 -1.60591 2.96209
HEad  -15.0295 -39.738 15.5077
LeftShoulder1  1.71672 -2.77417 -20.9455
LeftArm  38.2849 -19.3045 -59.4025
LeftForeArm  143.454 -70.3255 -149.273
LeftHand  -0.0767215 5.0123 21.8377
RightShoulder  3.77658 6.15401 33.2229
RightArm  -25.321 -20.4359 34.1048
RightForeArm  10.1224 8.19717 10.2085
RightHand  0.10285 -1.80988 3.71209
LeftUpLeg  0.227927 7.64414 13.2781
LeftLeg  18.9857 -3.44589 -1.02189
LeftFoot  2.37122 1.95524 -16.2894
LeftToes  -6.27559e-011 -2.10356e-011 8.24929e-012
649
root  2.44461 40.0073 25.2814 -176.776 -68.1401 170.655
RightUpLeg  -7.8806 -14.9142 -23.7195
RightLeg  25.6632 2.40917 1.05293
RightFoot  14.9821 -0.901152 4.29506
RightToes  -1.74623e-010 0 -2.59999e-017
Spine  3.70283 -1.045 -3.83689
Spine1  13.6932 -2.16145 1.74526
HEad  -13.9324 -39.4495 15.4847
LeftShoulder1  1.67559 -2.69986 -20.5884
LeftArm  34.2597 -16.9275 -54.1012
LeftForeArm  146.145 -68.5112 -152.308
LeftHand  0.0567552 5.72209 21.8137
RightShoulder  3.76224 6.1294 33.1738
RightArm  -25.0073 -21.9534 35.3136
RightForeArm  10.7275 8.61198 10.1578
RightHand  0.100049 -2.76226 5.15977
LeftUpLeg  -0.667298 9.13025 12.9863
LeftLeg  20.3768 0.465635 0.514152
LeftFoot  4.67676 1.68454 -12.0736
LeftToes  -6.27559e-011 -2.10356e-011 8.24929e-012
650
root  2.84875 39.75 24.8973 -176.075 -69.715 169.469
RightUpLeg  -6.75658 -15.3829 -23.9381
RightLeg  32.159 2.84682 1.70957
RightFoot  10.5139 -0.978444 5.4023
RightToes  -1.74623e-010 0 -2.59999e-017
Spine  3.3633 -1.11167 -4.14718
Spine1  14.3317 -2.24329 1.66663
HEad  -13.7119 -40.2311 15.3352
LeftShoulder1  1.69639 -2.90994 -19.9892
LeftArm  30.7508 -16.8364 -53.0143
LeftForeArm  146.922 -68.3348 -152.63
LeftHand  0.135947 6.17718 21.1071
RightShoulder  3.5727 5.93648 31.9601
RightArm  -20.7595 -21.3089 35.1817
RightForeArm  8.3499 9.62486 10.5748
RightHand  0.0573899 -2.61337 3.10857
LeftUpLeg  -2.07741 8.72661 13.2958
LeftLeg  27.2849 -1.80816 -0.73175
LeftFoot  2.63363 1.24678 -10.2911
LeftToes  -6.27559e-011 -2.10356e-011 8.24929e-012
651
root  3.30541 38.8928 24.5189 -176.906 -70.1248 169.125
RightUpLeg  -5.12546 -15.2503 -24.181
RightLeg  35.9126 3.17676 2.21378
RightFoot  2.25739 -1.45385 12.4895
RightToes  -1.74623e-010 0 -2.59999e-017
Spine  4.7069 -0.533761 -4.65194
Spine1  13.9817 -1.91106 2.53123
HEad  -13.8772 -40.6585 14.8189
LeftShoulder1  1.76803 -3.11858 -20.2549
LeftArm  27.4919 -17.0905 -53.1484
LeftForeArm  144.288 -68.762 -151.719
LeftHand  0.20368 6.65182 19.6208
RightShoulder  3.32686 5.69847 30.2479
RightArm  -13.5386 -20.0426 34.3656
RightForeArm  4.77197 13.4238 9.67535
RightHand  -0.020435 -2.33762 -0.413194
LeftUpLeg  -2.61818 7.01289 14.2902
LeftLeg  35.8903 -5.64621 -4.04667
LeftFoot  0.91412 1.19984 -11.1153
LeftToes  -6.27559e-011 -2.10356e-011 8.24929e-012
